<?xml version="1.0" encoding="utf-8"?>
<!-- Generator: Adobe Illustrator 23.1.0, SVG Export Plug-In . SVG Version: 6.00 Build 0)  -->
<svg version="1.1" id="Layer_1" xmlns="http://www.w3.org/2000/svg" xmlns:xlink="http://www.w3.org/1999/xlink" x="0px" y="0px"
	 viewBox="0 0 763.4 1418.9" style="enable-background:new 0 0 763.4 1418.9;" xml:space="preserve">
<style type="text/css">
	.st0{fill:#FFFFFF;}
	.st1{fill:#FFD366;}
	.st2{fill:#8EE4FE;}
	.st3{fill:#F76363;}
	.st4{fill:#562E2E;}
</style>
<title>Asset 2</title>
<g>
	<g id="XMLID_85_">
		<g>
			<g>
				<path class="st0" d="M640.8,215.6c69.4,31.4,91.3,67,95.9,76.2c-6.4,69.1-19.8,146.3-45.2,225.8
					c-59.3,185.5-163,338.2-220,413.2l-114.8-51.9l89.5-197.6c2.5-5.5,0.1-12-5.4-14.5c-5.5-2.5-11.9-0.1-14.5,5.4l-89.4,197.7
					l-113.7-51.4c18.8-92.3,65-270.9,165.3-438.1c43.2-71.9,92.5-133.1,140.5-183.6C536.2,193.8,570.9,183.9,640.8,215.6z
					 M626.3,488.4c22.6-49.9,0.3-108.8-49.6-131.4c-49.9-22.6-108.9-0.4-131.4,49.6c-11,24.1-11.8,51.2-2.5,76
					c9.4,24.8,27.9,44.6,52.1,55.5c37.3,16.9,79.7,8.8,108.1-17.3C612.6,511.9,620.6,501.1,626.3,488.4z"/>
			</g>
			<g>
				<path class="st1" d="M597.8,779.5c18.9,37.4,61.5,123,68.2,150c3.7,20.1-77.8,136.1-157.3,234.9l-2.4-1.1
					c13.5-33,50.9-130.8,39.7-171.9c-9.4-34.7-28.9-60.1-39-71.7C533.1,883.6,565.2,835.9,597.8,779.5z"/>
			</g>
			<g>
				<path class="st1" d="M253.5,623.7c-21,61.7-35.6,117.2-45.4,160.7c-15.4,0-47.3,2.2-79.6,18c-38.2,18.7-87,111.3-103,143.3
					l-2.5-1.1c21.7-124.9,55.4-262.6,72.6-273.1C120.5,658.6,213,634.2,253.5,623.7z"/>
			</g>
			<g>
				<path class="st2" d="M567.8,376.8c38.9,17.6,56.2,63.7,38.7,102.6c-8.6,18.8-23.9,33.3-43.3,40.5c-19.4,7.3-40.5,6.7-59.3-1.8
					c-18.9-8.6-33.3-23.9-40.5-43.3c-7.3-19.3-6.7-40.5,1.8-59.3c4.5-9.8,10.7-18.2,18.3-25.1C505.6,370.1,538.7,363.7,567.8,376.8z
					 M583.3,424.9c-6.4-22.8-30.2-36.3-53.1-29.9c-5.8,1.6-9.2,7.6-7.5,13.4c1.6,5.8,7.6,9.2,13.4,7.5c11.3-3.1,23,3.5,26.1,14.8
					c1.6,5.8,7.6,9.2,13.5,7.6c1.7-0.5,3.2-1.4,4.4-2.5C583,433.3,584.4,429,583.3,424.9z"/>
			</g>
			<g>
				<path class="st3" d="M730.5,28.1c5.1,32.6,15.8,118.3,8.9,229.8c-15.5-17.7-42.7-41-89.5-62.2c-42.6-19.2-74.2-24.4-96-24.4
					C632.2,93.6,702.8,45.6,730.5,28.1z"/>
			</g>
			<g>
				<g>
					<path class="st4" d="M530.2,395.1c-5.8,1.6-9.2,7.6-7.5,13.4c1.6,5.8,7.6,9.2,13.4,7.5c11.3-3.1,23,3.5,26.1,14.8
						c1.6,5.8,7.6,9.2,13.5,7.6c1.7-0.5,3.2-1.4,4.4-2.5c2.9-2.7,4.3-6.9,3.2-11C576.9,402.1,553,388.7,530.2,395.1z"/>
				</g>
				<g>
					<path class="st4" d="M445.3,406.6c-11,24.1-11.8,51.2-2.5,76c9.4,24.8,27.9,44.6,52.1,55.5c37.3,16.9,79.7,8.8,108.1-17.3
						c9.6-8.8,17.6-19.7,23.3-32.3c22.6-49.9,0.3-108.8-49.6-131.4C526.8,334.4,467.9,356.6,445.3,406.6z M606.5,479.5
						c-8.6,18.8-23.9,33.3-43.3,40.5c-19.4,7.3-40.5,6.7-59.3-1.8c-18.9-8.6-33.3-23.9-40.5-43.3c-7.3-19.3-6.7-40.5,1.8-59.3
						c4.5-9.8,10.7-18.2,18.3-25.1c22.2-20.3,55.3-26.7,84.4-13.6C606.7,394.5,624,440.5,606.5,479.5z"/>
				</g>
				<g>
					<path class="st4" d="M742.6,1.3c-3.2-1.7-7.1-1.8-10.5,0.2c-1.5,0.9-104.9,60.7-216.6,177.8c-1.1,0.8-2.1,1.8-2.8,3
						c-48.8,51.5-99,113.9-143,187c-46.4,77.3-81.4,157-107.6,229.8c-27.2,6.9-145.7,37.2-176.4,53.1
						C50.4,670.4,11.3,884.1,0.1,949.3c-0.8,4.9,1.8,9.7,6.3,11.7l19.8,9c5.5,2.5,11.8,0.1,14.4-5.2
						c16.5-34.6,66.2-127.4,97.6-142.7c25.2-12.4,50.6-15.2,65.2-15.7c-1.1,5.2-2.1,10.3-3,15c-0.3,0.9-0.5,1.8-0.5,2.7
						c-6.7,34-9.3,54.4-9.4,55.1c-0.5,4.7,2,9.3,6.4,11.3l10.5,4.7l-0.4,40.3c-0.1,4.3,2.5,8.3,6.4,10.1l74,33.5l-35.8,79.1
						c-2.5,5.6-0.1,12,5.4,14.5c4.1,1.9,8.8,1,11.9-1.9c1-0.9,1.9-2.1,2.6-3.5l35.8-79.1l75.2,34.1c3.9,1.7,8.6,1,11.8-1.8l30-27
						l10.5,4.8c4,1.8,8.7,0.9,11.8-1.9c0.3-0.2,0.5-0.5,0.8-0.7c0.5-0.5,14.1-16,35.3-43.5c0.5-0.6,1.1-1.3,1.6-2
						c2.9-3.8,6-8,9.3-12.3c9.2,11.2,23.9,32.1,31.2,59.3c9.2,33.6-27.8,132.3-42.8,167.5c-2.3,5.5,0.1,11.8,5.6,14.2l19.8,9
						c4,1.8,8.7,1,11.9-1.9c0.4-0.4,0.8-0.7,1.1-1.1c41.5-51.3,176.4-221.8,166.8-260.5c-8.4-33.7-63.8-142.6-76.6-167.6
						c37.5-67.7,74.2-146.6,101.7-232.5c26-81.3,39.7-160.2,46.2-230.9c0.4-1.3,0.5-2.6,0.4-3.9c14.2-161.2-9.1-278.4-9.5-280.2
						C748.6,5.5,746,2.6,742.6,1.3z M128.6,802.4c-38.2,18.7-87,111.3-103,143.3l-2.5-1.1c21.7-124.9,55.4-262.6,72.6-273.1
						c24.7-12.9,117.2-37.3,157.8-47.7c-21,61.7-35.6,117.2-45.4,160.7C192.8,784.5,160.8,786.7,128.6,802.4z M666,929.5
						c3.7,20.1-77.8,136.1-157.3,234.9l-2.4-1.1c13.5-33,50.9-130.8,39.7-171.9c-9.4-34.7-28.9-60.1-39-71.7
						c26.2-36,58.3-83.7,90.8-140.1C616.7,816.9,659.3,902.5,666,929.5z M736.7,291.8c-6.4,69.1-19.8,146.3-45.2,225.8
						c-59.3,185.5-163,338.2-220,413.2l-114.8-51.9l89.5-197.6c2.5-5.5,0.1-12-5.4-14.5c-5.5-2.5-11.9-0.1-14.5,5.4l-89.4,197.7
						l-113.7-51.4c18.8-92.3,65-270.9,165.3-438.1c43.2-71.9,92.5-133.1,140.5-183.6c7.3-2.9,42-12.8,111.9,18.8
						C710.2,247,732.1,282.6,736.7,291.8z M739.3,257.9c-15.5-17.7-42.7-41-89.5-62.2c-42.6-19.2-74.2-24.4-96-24.4
						c78.4-77.7,149-125.7,176.7-143.2C735.6,60.7,746.3,146.4,739.3,257.9z"/>
				</g>
				<g>
					<path class="st4" d="M321.9,1135.1l-17,37.4c-2.5,5.5,0,12,5.4,14.5c4.1,1.8,8.8,1,11.9-1.9c1.1-1,2-2.2,2.6-3.5l17-37.4
						c2.5-5.5,0-12-5.4-14.5C330.9,1127.2,324.4,1129.6,321.9,1135.1z"/>
				</g>
				<g>
					<path class="st4" d="M144.7,1112.6c1.1-1,2-2.2,2.6-3.5l19.9-43.9c2.6-5.5,0.1-11.9-5.4-14.4c-5.5-2.6-11.9-0.1-14.5,5.4
						l-19.9,43.9c-2.5,5.5,0,12,5.4,14.5C137,1116.3,141.6,1115.5,144.7,1112.6z"/>
				</g>
				<g>
					<path class="st4" d="M225,1117.8l-17.1,37.9c-2.5,5.5-0.1,11.9,5.4,14.5c4,1.8,8.8,1,11.9-1.9c1.1-1,1.9-2.2,2.5-3.6l17.2-37.8
						c2.5-5.5,0-12-5.4-14.5C234,1109.9,227.5,1112.3,225,1117.8z"/>
				</g>
				<g>
					<path class="st4" d="M68.2,1281.9c1-0.9,1.9-2.1,2.6-3.5l60.5-133.7c2.5-5.5,0-12-5.5-14.4c-5.5-2.5-11.9-0.1-14.5,5.4
						l-60.5,133.7c-2.5,5.5,0,12,5.5,14.4C60.4,1285.6,65,1284.8,68.2,1281.9z"/>
				</g>
				<g>
					<path class="st4" d="M286,1214.6l-60.6,133.8c-2.5,5.5-0.1,11.9,5.5,14.4c4,1.8,8.7,0.9,11.8-2c1-0.9,1.9-2.1,2.6-3.5
						l60.6-133.7c2.5-5.5,0-12-5.4-14.5C294.9,1206.7,288.4,1209.1,286,1214.6z"/>
				</g>
				<g>
					<path class="st4" d="M204.1,1190.4c-5.5-2.5-11.9-0.1-14.5,5.4l-93.9,207.6c-2.5,5.5-0.1,11.9,5.4,14.5
						c4.1,1.8,8.7,0.9,11.8-1.9c1.1-1,2-2.1,2.6-3.5l94-207.6C212.1,1199.4,209.6,1192.9,204.1,1190.4z"/>
				</g>
			</g>
		</g>
	</g>
</g>
</svg>
